<mxfile host="app.diagrams.net" modified="2021-08-26T17:40:35.587Z" agent="5.0 (Windows)" etag="l9CvdcEEGfz2p7Lh3nBc" version="14.9.9" type="github">
  <diagram id="kgpKYQtTHZ0yAKxKKP6v" name="Page-1">
    <mxGraphModel dx="1269" dy="564" grid="1" gridSize="10" guides="1" tooltips="1" connect="1" arrows="1" fold="1" page="1" pageScale="1" pageWidth="850" pageHeight="1100" math="0" shadow="0">
      <root>
        <mxCell id="0" />
        <mxCell id="1" parent="0" />
        <mxCell id="JwsPIG9ZyGlw1oU2q3gU-5" value="" style="shape=umlLifeline;participant=umlActor;perimeter=lifelinePerimeter;whiteSpace=wrap;html=1;container=1;collapsible=0;recursiveResize=0;verticalAlign=top;spacingTop=36;outlineConnect=0;" vertex="1" parent="1">
          <mxGeometry x="90" y="100" width="20" height="560" as="geometry" />
        </mxCell>
        <mxCell id="JwsPIG9ZyGlw1oU2q3gU-6" value="website" style="shape=umlLifeline;perimeter=lifelinePerimeter;whiteSpace=wrap;html=1;container=1;collapsible=0;recursiveResize=0;outlineConnect=0;size=30;" vertex="1" parent="1">
          <mxGeometry x="250" y="100" width="110" height="550" as="geometry" />
        </mxCell>
        <mxCell id="JwsPIG9ZyGlw1oU2q3gU-12" value="" style="html=1;points=[];perimeter=orthogonalPerimeter;" vertex="1" parent="JwsPIG9ZyGlw1oU2q3gU-6">
          <mxGeometry x="45" y="70" width="10" height="70" as="geometry" />
        </mxCell>
        <mxCell id="JwsPIG9ZyGlw1oU2q3gU-27" value="" style="html=1;points=[];perimeter=orthogonalPerimeter;" vertex="1" parent="JwsPIG9ZyGlw1oU2q3gU-6">
          <mxGeometry x="50" y="340" width="10" height="80" as="geometry" />
        </mxCell>
        <mxCell id="JwsPIG9ZyGlw1oU2q3gU-28" value="payment detail" style="html=1;verticalAlign=bottom;startArrow=oval;endArrow=block;startSize=8;" edge="1" target="JwsPIG9ZyGlw1oU2q3gU-27" parent="JwsPIG9ZyGlw1oU2q3gU-6">
          <mxGeometry relative="1" as="geometry">
            <mxPoint x="-150" y="340" as="sourcePoint" />
          </mxGeometry>
        </mxCell>
        <mxCell id="JwsPIG9ZyGlw1oU2q3gU-7" value="apointment" style="shape=umlLifeline;perimeter=lifelinePerimeter;whiteSpace=wrap;html=1;container=1;collapsible=0;recursiveResize=0;outlineConnect=0;" vertex="1" parent="1">
          <mxGeometry x="440" y="100" width="100" height="540" as="geometry" />
        </mxCell>
        <mxCell id="JwsPIG9ZyGlw1oU2q3gU-15" value="" style="html=1;points=[];perimeter=orthogonalPerimeter;" vertex="1" parent="JwsPIG9ZyGlw1oU2q3gU-7">
          <mxGeometry x="45" y="160" width="10" height="80" as="geometry" />
        </mxCell>
        <mxCell id="JwsPIG9ZyGlw1oU2q3gU-8" value="admin" style="shape=umlLifeline;perimeter=lifelinePerimeter;whiteSpace=wrap;html=1;container=1;collapsible=0;recursiveResize=0;outlineConnect=0;" vertex="1" parent="1">
          <mxGeometry x="640" y="100" width="100" height="530" as="geometry" />
        </mxCell>
        <mxCell id="JwsPIG9ZyGlw1oU2q3gU-18" value="" style="html=1;points=[];perimeter=orthogonalPerimeter;" vertex="1" parent="JwsPIG9ZyGlw1oU2q3gU-8">
          <mxGeometry x="45" y="210" width="10" height="80" as="geometry" />
        </mxCell>
        <mxCell id="JwsPIG9ZyGlw1oU2q3gU-19" value="available" style="html=1;verticalAlign=bottom;endArrow=block;entryX=0;entryY=0;" edge="1" target="JwsPIG9ZyGlw1oU2q3gU-18" parent="JwsPIG9ZyGlw1oU2q3gU-8">
          <mxGeometry x="-0.027" y="10" relative="1" as="geometry">
            <mxPoint x="-140" y="210" as="sourcePoint" />
            <Array as="points" />
            <mxPoint as="offset" />
          </mxGeometry>
        </mxCell>
        <mxCell id="JwsPIG9ZyGlw1oU2q3gU-31" value="" style="html=1;points=[];perimeter=orthogonalPerimeter;" vertex="1" parent="JwsPIG9ZyGlw1oU2q3gU-8">
          <mxGeometry x="45" y="390" width="10" height="80" as="geometry" />
        </mxCell>
        <mxCell id="JwsPIG9ZyGlw1oU2q3gU-9" value="system" style="shape=umlLifeline;perimeter=lifelinePerimeter;whiteSpace=wrap;html=1;container=1;collapsible=0;recursiveResize=0;outlineConnect=0;" vertex="1" parent="1">
          <mxGeometry x="820" y="100" width="100" height="540" as="geometry" />
        </mxCell>
        <mxCell id="JwsPIG9ZyGlw1oU2q3gU-35" value="" style="html=1;points=[];perimeter=orthogonalPerimeter;" vertex="1" parent="JwsPIG9ZyGlw1oU2q3gU-9">
          <mxGeometry x="45" y="420" width="10" height="80" as="geometry" />
        </mxCell>
        <mxCell id="JwsPIG9ZyGlw1oU2q3gU-14" value="login is successful" style="html=1;verticalAlign=bottom;endArrow=open;dashed=1;endSize=8;" edge="1" source="JwsPIG9ZyGlw1oU2q3gU-12" parent="1" target="JwsPIG9ZyGlw1oU2q3gU-5">
          <mxGeometry relative="1" as="geometry">
            <mxPoint x="225" y="246" as="targetPoint" />
          </mxGeometry>
        </mxCell>
        <mxCell id="JwsPIG9ZyGlw1oU2q3gU-13" value="login()" style="html=1;verticalAlign=bottom;endArrow=block;entryX=0;entryY=0;" edge="1" target="JwsPIG9ZyGlw1oU2q3gU-12" parent="1" source="JwsPIG9ZyGlw1oU2q3gU-5">
          <mxGeometry relative="1" as="geometry">
            <mxPoint x="225" y="170" as="sourcePoint" />
          </mxGeometry>
        </mxCell>
        <mxCell id="JwsPIG9ZyGlw1oU2q3gU-16" value="check for appointment" style="html=1;verticalAlign=bottom;endArrow=block;entryX=0;entryY=0;" edge="1" target="JwsPIG9ZyGlw1oU2q3gU-15" parent="1" source="JwsPIG9ZyGlw1oU2q3gU-5">
          <mxGeometry x="-0.5824" relative="1" as="geometry">
            <mxPoint x="410" y="260" as="sourcePoint" />
            <Array as="points">
              <mxPoint x="270" y="260" />
            </Array>
            <mxPoint x="1" as="offset" />
          </mxGeometry>
        </mxCell>
        <mxCell id="JwsPIG9ZyGlw1oU2q3gU-20" value="confirm" style="html=1;verticalAlign=bottom;endArrow=open;dashed=1;endSize=8;exitX=0;exitY=0.95;" edge="1" source="JwsPIG9ZyGlw1oU2q3gU-18" parent="1" target="JwsPIG9ZyGlw1oU2q3gU-5">
          <mxGeometry x="0.7933" relative="1" as="geometry">
            <mxPoint x="615" y="386" as="targetPoint" />
            <mxPoint as="offset" />
          </mxGeometry>
        </mxCell>
        <mxCell id="JwsPIG9ZyGlw1oU2q3gU-32" value="valid payment " style="html=1;verticalAlign=bottom;endArrow=block;entryX=0;entryY=0;exitX=1.1;exitY=0.65;exitDx=0;exitDy=0;exitPerimeter=0;" edge="1" target="JwsPIG9ZyGlw1oU2q3gU-31" parent="1" source="JwsPIG9ZyGlw1oU2q3gU-27">
          <mxGeometry relative="1" as="geometry">
            <mxPoint x="615" y="490" as="sourcePoint" />
          </mxGeometry>
        </mxCell>
        <mxCell id="JwsPIG9ZyGlw1oU2q3gU-33" value="not valid " style="html=1;verticalAlign=bottom;endArrow=open;dashed=1;endSize=8;exitX=0;exitY=0.95;" edge="1" source="JwsPIG9ZyGlw1oU2q3gU-31" parent="1" target="JwsPIG9ZyGlw1oU2q3gU-5">
          <mxGeometry x="0.8275" relative="1" as="geometry">
            <mxPoint x="615" y="566" as="targetPoint" />
            <mxPoint as="offset" />
          </mxGeometry>
        </mxCell>
        <mxCell id="JwsPIG9ZyGlw1oU2q3gU-36" value="print_slip" style="html=1;verticalAlign=bottom;endArrow=block;entryX=0;entryY=0;" edge="1" target="JwsPIG9ZyGlw1oU2q3gU-35" parent="1" source="JwsPIG9ZyGlw1oU2q3gU-8">
          <mxGeometry relative="1" as="geometry">
            <mxPoint x="795" y="520" as="sourcePoint" />
          </mxGeometry>
        </mxCell>
        <mxCell id="JwsPIG9ZyGlw1oU2q3gU-37" value="" style="html=1;verticalAlign=bottom;endArrow=open;dashed=1;endSize=8;exitX=0;exitY=0.95;" edge="1" source="JwsPIG9ZyGlw1oU2q3gU-35" parent="1" target="JwsPIG9ZyGlw1oU2q3gU-5">
          <mxGeometry x="0.9203" relative="1" as="geometry">
            <mxPoint x="795" y="596" as="targetPoint" />
            <Array as="points">
              <mxPoint x="150" y="600" />
            </Array>
            <mxPoint as="offset" />
          </mxGeometry>
        </mxCell>
        <mxCell id="JwsPIG9ZyGlw1oU2q3gU-39" value="return slip" style="text;html=1;align=center;verticalAlign=middle;resizable=0;points=[];autosize=1;strokeColor=none;" vertex="1" parent="1">
          <mxGeometry x="95" y="580" width="70" height="20" as="geometry" />
        </mxCell>
      </root>
    </mxGraphModel>
  </diagram>
</mxfile>
